<svg width="800" height="196" viewBox="0 0 800 196" fill="none" xmlns="http://www.w3.org/2000/svg">
<rect width="800" height="196" fill="white"/>
<path opacity="0.5" d="M146.585 48V34.9091H151.162C152.074 34.9091 152.826 35.0668 153.418 35.3821C154.011 35.6932 154.452 36.1129 154.741 36.6413C155.031 37.1655 155.176 37.7472 155.176 38.3864C155.176 38.9489 155.076 39.4134 154.876 39.7798C154.68 40.1463 154.42 40.4361 154.096 40.6491C153.776 40.8622 153.429 41.0199 153.054 41.1222V41.25C153.455 41.2756 153.857 41.4162 154.262 41.6719C154.667 41.9276 155.006 42.294 155.278 42.7713C155.551 43.2486 155.688 43.8324 155.688 44.5227C155.688 45.179 155.538 45.7692 155.24 46.2933C154.942 46.8175 154.471 47.233 153.827 47.5398C153.184 47.8466 152.347 48 151.315 48H146.585ZM148.17 46.5938H151.315C152.351 46.5938 153.086 46.3935 153.521 45.9929C153.96 45.5881 154.179 45.098 154.179 44.5227C154.179 44.0795 154.066 43.6705 153.84 43.2955C153.614 42.9162 153.293 42.6136 152.875 42.3878C152.457 42.1577 151.963 42.0426 151.392 42.0426H148.17V46.5938ZM148.17 40.6619H151.111C151.588 40.6619 152.018 40.5682 152.402 40.3807C152.79 40.1932 153.097 39.929 153.322 39.5881C153.553 39.2472 153.668 38.8466 153.668 38.3864C153.668 37.8111 153.467 37.3232 153.067 36.9226C152.666 36.5178 152.031 36.3153 151.162 36.3153H148.17V40.6619ZM160.977 48.2301C160.355 48.2301 159.79 48.1129 159.283 47.8786C158.776 47.6399 158.373 47.2969 158.075 46.8494C157.777 46.3977 157.627 45.8523 157.627 45.2131C157.627 44.6506 157.738 44.1946 157.96 43.8452C158.181 43.4915 158.478 43.2145 158.848 43.0142C159.219 42.8139 159.628 42.6648 160.076 42.5668C160.527 42.4645 160.981 42.3835 161.437 42.3239C162.034 42.2472 162.517 42.1896 162.888 42.1513C163.263 42.1087 163.536 42.0384 163.706 41.9403C163.881 41.8423 163.968 41.6719 163.968 41.429V41.3778C163.968 40.7472 163.796 40.2571 163.451 39.9077C163.11 39.5582 162.592 39.3835 161.897 39.3835C161.177 39.3835 160.613 39.5412 160.203 39.8565C159.794 40.1719 159.507 40.5085 159.341 40.8665L157.909 40.3551C158.164 39.7585 158.505 39.294 158.931 38.9616C159.362 38.625 159.831 38.3906 160.338 38.2585C160.849 38.1222 161.352 38.054 161.846 38.054C162.162 38.054 162.524 38.0923 162.933 38.169C163.346 38.2415 163.745 38.3928 164.128 38.6229C164.516 38.853 164.838 39.2003 165.093 39.6648C165.349 40.1293 165.477 40.7514 165.477 41.5312V48H163.968V46.6705H163.892C163.789 46.8835 163.619 47.1115 163.38 47.3544C163.142 47.5973 162.824 47.804 162.428 47.9744C162.032 48.1449 161.548 48.2301 160.977 48.2301ZM161.207 46.875C161.804 46.875 162.306 46.7578 162.716 46.5234C163.129 46.2891 163.44 45.9865 163.649 45.6158C163.862 45.245 163.968 44.8551 163.968 44.446V43.0653C163.904 43.142 163.764 43.2124 163.547 43.2763C163.333 43.3359 163.086 43.3892 162.805 43.4361C162.528 43.4787 162.257 43.517 161.993 43.5511C161.733 43.581 161.522 43.6065 161.36 43.6278C160.968 43.679 160.602 43.7621 160.261 43.8771C159.924 43.9879 159.652 44.1562 159.443 44.3821C159.238 44.6037 159.136 44.9062 159.136 45.2898C159.136 45.8139 159.33 46.2102 159.718 46.4787C160.11 46.7429 160.606 46.875 161.207 46.875ZM175.185 40.3807L173.83 40.7642C173.744 40.5384 173.619 40.3189 173.453 40.1058C173.291 39.8885 173.069 39.7095 172.788 39.5689C172.507 39.4283 172.146 39.358 171.708 39.358C171.107 39.358 170.606 39.4964 170.205 39.7734C169.809 40.0462 169.611 40.3935 169.611 40.8153C169.611 41.1903 169.747 41.4865 170.02 41.7038C170.293 41.9212 170.719 42.1023 171.298 42.2472L172.756 42.6051C173.634 42.8182 174.288 43.1442 174.718 43.5831C175.149 44.0178 175.364 44.5781 175.364 45.2642C175.364 45.8267 175.202 46.3295 174.878 46.7727C174.558 47.2159 174.111 47.5653 173.536 47.821C172.96 48.0767 172.291 48.2045 171.529 48.2045C170.527 48.2045 169.698 47.9872 169.042 47.5526C168.386 47.1179 167.97 46.483 167.796 45.6477L169.227 45.2898C169.364 45.8182 169.622 46.2145 170.001 46.4787C170.384 46.7429 170.885 46.875 171.503 46.875C172.206 46.875 172.764 46.7259 173.178 46.4276C173.595 46.125 173.804 45.7628 173.804 45.3409C173.804 45 173.685 44.7145 173.446 44.4844C173.208 44.25 172.841 44.0753 172.347 43.9602L170.71 43.5767C169.811 43.3636 169.151 43.0334 168.729 42.5859C168.311 42.1342 168.102 41.5696 168.102 40.892C168.102 40.3381 168.258 39.848 168.569 39.4219C168.884 38.9957 169.313 38.6612 169.854 38.4183C170.399 38.1754 171.017 38.054 171.708 38.054C172.679 38.054 173.442 38.267 173.996 38.6932C174.554 39.1193 174.95 39.6818 175.185 40.3807ZM181.751 48.2045C180.805 48.2045 179.989 47.9957 179.303 47.5781C178.621 47.1562 178.095 46.5682 177.724 45.8139C177.358 45.0554 177.174 44.1733 177.174 43.1676C177.174 42.1619 177.358 41.2756 177.724 40.5085C178.095 39.7372 178.61 39.1364 179.271 38.706C179.936 38.2713 180.711 38.054 181.598 38.054C182.109 38.054 182.614 38.1392 183.113 38.3097C183.611 38.4801 184.065 38.7571 184.474 39.1406C184.883 39.5199 185.209 40.0227 185.452 40.6491C185.695 41.2756 185.816 42.0469 185.816 42.9631V43.6023H178.248V42.2983H184.282C184.282 41.7443 184.172 41.25 183.95 40.8153C183.733 40.3807 183.422 40.0376 183.017 39.7862C182.616 39.5348 182.143 39.4091 181.598 39.4091C180.997 39.4091 180.477 39.5582 180.038 39.8565C179.603 40.1506 179.269 40.5341 179.034 41.0071C178.8 41.4801 178.683 41.9872 178.683 42.5284V43.3977C178.683 44.1392 178.811 44.7678 179.066 45.2834C179.326 45.7947 179.686 46.1847 180.147 46.4531C180.607 46.7173 181.142 46.8494 181.751 46.8494C182.147 46.8494 182.505 46.794 182.825 46.6832C183.149 46.5682 183.428 46.3977 183.662 46.1719C183.897 45.9418 184.078 45.6562 184.206 45.3153L185.663 45.7244C185.51 46.2188 185.252 46.6534 184.89 47.0284C184.527 47.3991 184.08 47.6889 183.547 47.8977C183.015 48.1023 182.416 48.2045 181.751 48.2045Z" fill="black"/>
<path opacity="0.5" d="M440.625 48H436.585V34.9091H440.804C442.074 34.9091 443.161 35.1712 444.064 35.6953C444.967 36.2152 445.66 36.9631 446.141 37.9389C446.623 38.9105 446.864 40.0739 446.864 41.429C446.864 42.7926 446.621 43.9666 446.135 44.951C445.649 45.9311 444.942 46.6854 444.013 47.2138C443.084 47.7379 441.955 48 440.625 48ZM438.17 46.5938H440.523C441.605 46.5938 442.502 46.3849 443.214 45.9673C443.925 45.5497 444.456 44.9553 444.805 44.1839C445.155 43.4126 445.33 42.4943 445.33 41.429C445.33 40.3722 445.157 39.4624 444.812 38.6996C444.467 37.9325 443.951 37.3445 443.265 36.9354C442.579 36.522 441.724 36.3153 440.702 36.3153H438.17V46.5938ZM453.435 48.2045C452.489 48.2045 451.673 47.9957 450.987 47.5781C450.305 47.1562 449.778 46.5682 449.408 45.8139C449.041 45.0554 448.858 44.1733 448.858 43.1676C448.858 42.1619 449.041 41.2756 449.408 40.5085C449.778 39.7372 450.294 39.1364 450.955 38.706C451.619 38.2713 452.395 38.054 453.281 38.054C453.793 38.054 454.298 38.1392 454.796 38.3097C455.295 38.4801 455.749 38.7571 456.158 39.1406C456.567 39.5199 456.893 40.0227 457.136 40.6491C457.379 41.2756 457.5 42.0469 457.5 42.9631V43.6023H449.932V42.2983H455.966C455.966 41.7443 455.855 41.25 455.634 40.8153C455.416 40.3807 455.105 40.0376 454.7 39.7862C454.3 39.5348 453.827 39.4091 453.281 39.4091C452.68 39.4091 452.161 39.5582 451.722 39.8565C451.287 40.1506 450.952 40.5341 450.718 41.0071C450.484 41.4801 450.366 41.9872 450.366 42.5284V43.3977C450.366 44.1392 450.494 44.7678 450.75 45.2834C451.01 45.7947 451.37 46.1847 451.83 46.4531C452.29 46.7173 452.825 46.8494 453.435 46.8494C453.831 46.8494 454.189 46.794 454.509 46.6832C454.832 46.5682 455.112 46.3977 455.346 46.1719C455.58 45.9418 455.761 45.6562 455.889 45.3153L457.347 45.7244C457.193 46.2188 456.935 46.6534 456.573 47.0284C456.211 47.3991 455.763 47.6889 455.231 47.8977C454.698 48.1023 454.099 48.2045 453.435 48.2045ZM459.795 48V38.1818H461.252V39.6648H461.354C461.533 39.179 461.857 38.7848 462.326 38.4822C462.795 38.1797 463.323 38.0284 463.911 38.0284C464.022 38.0284 464.161 38.0305 464.327 38.0348C464.493 38.0391 464.619 38.0455 464.704 38.054V39.5881C464.653 39.5753 464.536 39.5561 464.352 39.5305C464.173 39.5007 463.984 39.4858 463.783 39.4858C463.306 39.4858 462.88 39.5859 462.505 39.7862C462.134 39.9822 461.84 40.255 461.623 40.6044C461.41 40.9496 461.303 41.3437 461.303 41.7869V48H459.795ZM466.492 48V38.1818H468.001V48H466.492ZM467.259 36.5455C466.965 36.5455 466.711 36.4453 466.498 36.245C466.29 36.0447 466.185 35.804 466.185 35.5227C466.185 35.2415 466.29 35.0007 466.498 34.8004C466.711 34.6001 466.965 34.5 467.259 34.5C467.553 34.5 467.805 34.6001 468.013 34.8004C468.226 35.0007 468.333 35.2415 468.333 35.5227C468.333 35.804 468.226 36.0447 468.013 36.245C467.805 36.4453 467.553 36.5455 467.259 36.5455ZM478.792 38.1818L475.161 48H473.627L469.996 38.1818H471.633L474.343 46.0057H474.445L477.156 38.1818H478.792ZM484.548 48.2045C483.602 48.2045 482.786 47.9957 482.1 47.5781C481.418 47.1562 480.892 46.5682 480.521 45.8139C480.154 45.0554 479.971 44.1733 479.971 43.1676C479.971 42.1619 480.154 41.2756 480.521 40.5085C480.892 39.7372 481.407 39.1364 482.068 38.706C482.733 38.2713 483.508 38.054 484.395 38.054C484.906 38.054 485.411 38.1392 485.909 38.3097C486.408 38.4801 486.862 38.7571 487.271 39.1406C487.68 39.5199 488.006 40.0227 488.249 40.6491C488.492 41.2756 488.613 42.0469 488.613 42.9631V43.6023H481.045V42.2983H487.079C487.079 41.7443 486.968 41.25 486.747 40.8153C486.529 40.3807 486.218 40.0376 485.814 39.7862C485.413 39.5348 484.94 39.4091 484.395 39.4091C483.794 39.4091 483.274 39.5582 482.835 39.8565C482.4 40.1506 482.066 40.5341 481.831 41.0071C481.597 41.4801 481.48 41.9872 481.48 42.5284V43.3977C481.48 44.1392 481.608 44.7678 481.863 45.2834C482.123 45.7947 482.483 46.1847 482.944 46.4531C483.404 46.7173 483.939 46.8494 484.548 46.8494C484.944 46.8494 485.302 46.794 485.622 46.6832C485.946 46.5682 486.225 46.3977 486.459 46.1719C486.694 45.9418 486.875 45.6562 487.002 45.3153L488.46 45.7244C488.306 46.2188 488.049 46.6534 487.686 47.0284C487.324 47.3991 486.877 47.6889 486.344 47.8977C485.811 48.1023 485.213 48.2045 484.548 48.2045ZM494.615 48.2045C493.797 48.2045 493.075 47.9979 492.449 47.5845C491.822 47.1669 491.332 46.5788 490.978 45.8203C490.625 45.0575 490.448 44.1562 490.448 43.1165C490.448 42.0852 490.625 41.1903 490.978 40.4318C491.332 39.6733 491.824 39.0874 492.455 38.674C493.086 38.2607 493.814 38.054 494.641 38.054C495.28 38.054 495.785 38.1605 496.156 38.3736C496.531 38.5824 496.816 38.821 497.012 39.0895C497.213 39.3537 497.368 39.571 497.479 39.7415H497.607V34.9091H499.115V48H497.658V46.4915H497.479C497.368 46.6705 497.211 46.8963 497.006 47.169C496.801 47.4375 496.51 47.6783 496.13 47.8913C495.751 48.1001 495.246 48.2045 494.615 48.2045ZM494.82 46.8494C495.425 46.8494 495.936 46.6918 496.354 46.3764C496.772 46.0568 497.089 45.6158 497.306 45.0533C497.524 44.4865 497.632 43.8324 497.632 43.0909C497.632 42.358 497.526 41.7166 497.313 41.1669C497.1 40.6129 496.784 40.1825 496.367 39.8757C495.949 39.5646 495.434 39.4091 494.82 39.4091C494.181 39.4091 493.648 39.5732 493.222 39.9013C492.8 40.2251 492.483 40.6662 492.27 41.2244C492.061 41.7784 491.956 42.4006 491.956 43.0909C491.956 43.7898 492.063 44.4247 492.276 44.9957C492.493 45.5625 492.813 46.0142 493.235 46.3509C493.661 46.6832 494.189 46.8494 494.82 46.8494Z" fill="black"/>
<path d="M432 106L422 100.226V111.774L432 106ZM304 106V107H423V106V105H304V106Z" fill="#44A4F8"/>
<rect x="145.5" y="83.5" width="155" height="64" rx="4.5" fill="white" stroke="black"/>
<rect x="435.5" y="83.5" width="194" height="64" rx="4.5" fill="white" stroke="black"/>
<rect x="435" y="149" width="195" height="21" rx="5" fill="#44A4F8"/>
<path d="M162.267 104.455V105.307H158.875V104.455H162.267ZM159.864 102.886H160.869V109.125C160.869 109.409 160.911 109.622 160.993 109.764C161.078 109.903 161.186 109.997 161.317 110.045C161.45 110.091 161.591 110.114 161.739 110.114C161.849 110.114 161.94 110.108 162.011 110.097C162.082 110.082 162.139 110.071 162.182 110.062L162.386 110.966C162.318 110.991 162.223 111.017 162.101 111.043C161.979 111.071 161.824 111.085 161.636 111.085C161.352 111.085 161.074 111.024 160.801 110.902C160.531 110.78 160.307 110.594 160.128 110.344C159.952 110.094 159.864 109.778 159.864 109.398V102.886ZM164.428 113.455C164.257 113.455 164.105 113.44 163.972 113.412C163.838 113.386 163.746 113.361 163.695 113.335L163.95 112.449C164.195 112.511 164.411 112.534 164.598 112.517C164.786 112.5 164.952 112.416 165.097 112.266C165.244 112.118 165.379 111.878 165.501 111.545L165.689 111.034L163.268 104.455H164.359L166.166 109.67H166.234L168.041 104.455H169.132L166.354 111.955C166.229 112.293 166.074 112.572 165.889 112.794C165.705 113.018 165.49 113.185 165.246 113.293C165.004 113.401 164.732 113.455 164.428 113.455ZM170.46 113.455V104.455H171.431V105.494H171.55C171.624 105.381 171.727 105.236 171.857 105.06C171.991 104.881 172.181 104.722 172.428 104.582C172.678 104.44 173.016 104.369 173.442 104.369C173.994 104.369 174.479 104.507 174.9 104.783C175.32 105.058 175.648 105.449 175.884 105.955C176.12 106.46 176.238 107.057 176.238 107.744C176.238 108.438 176.12 109.038 175.884 109.547C175.648 110.053 175.322 110.445 174.904 110.723C174.487 110.999 174.005 111.136 173.46 111.136C173.039 111.136 172.702 111.067 172.45 110.928C172.197 110.786 172.002 110.625 171.866 110.446C171.729 110.264 171.624 110.114 171.55 109.994H171.465V113.455H170.46ZM171.448 107.727C171.448 108.222 171.521 108.658 171.665 109.036C171.81 109.411 172.022 109.705 172.3 109.918C172.579 110.128 172.92 110.233 173.323 110.233C173.744 110.233 174.094 110.122 174.376 109.901C174.66 109.676 174.873 109.375 175.015 108.997C175.16 108.616 175.232 108.193 175.232 107.727C175.232 107.267 175.161 106.852 175.019 106.483C174.88 106.111 174.668 105.817 174.384 105.601C174.103 105.382 173.749 105.273 173.323 105.273C172.914 105.273 172.57 105.376 172.292 105.584C172.013 105.788 171.803 106.075 171.661 106.445C171.519 106.811 171.448 107.239 171.448 107.727ZM180.516 111.136C179.886 111.136 179.342 110.997 178.884 110.719C178.43 110.438 178.079 110.045 177.832 109.543C177.587 109.037 177.465 108.449 177.465 107.778C177.465 107.108 177.587 106.517 177.832 106.006C178.079 105.491 178.423 105.091 178.863 104.804C179.306 104.514 179.823 104.369 180.414 104.369C180.755 104.369 181.092 104.426 181.424 104.54C181.756 104.653 182.059 104.838 182.332 105.094C182.604 105.347 182.822 105.682 182.984 106.099C183.146 106.517 183.227 107.031 183.227 107.642V108.068H178.181V107.199H182.204C182.204 106.83 182.13 106.5 181.982 106.21C181.837 105.92 181.63 105.692 181.36 105.524C181.093 105.357 180.778 105.273 180.414 105.273C180.013 105.273 179.667 105.372 179.374 105.571C179.085 105.767 178.862 106.023 178.705 106.338C178.549 106.653 178.471 106.991 178.471 107.352V107.932C178.471 108.426 178.556 108.845 178.727 109.189C178.9 109.53 179.14 109.79 179.447 109.969C179.754 110.145 180.11 110.233 180.516 110.233C180.781 110.233 181.019 110.196 181.232 110.122C181.448 110.045 181.634 109.932 181.79 109.781C181.947 109.628 182.067 109.437 182.153 109.21L183.124 109.483C183.022 109.812 182.85 110.102 182.609 110.352C182.367 110.599 182.069 110.793 181.714 110.932C181.359 111.068 180.96 111.136 180.516 111.136ZM188.54 105.835V104.915H193.79V105.835H188.54ZM188.54 108.358V107.438H193.79V108.358H188.54ZM206.576 105H205.519C205.456 104.696 205.347 104.429 205.191 104.199C205.037 103.969 204.85 103.776 204.628 103.619C204.409 103.46 204.167 103.341 203.9 103.261C203.632 103.182 203.354 103.142 203.064 103.142C202.536 103.142 202.057 103.276 201.628 103.543C201.202 103.81 200.863 104.203 200.61 104.723C200.36 105.243 200.235 105.881 200.235 106.636C200.235 107.392 200.36 108.03 200.61 108.55C200.863 109.07 201.202 109.463 201.628 109.73C202.057 109.997 202.536 110.131 203.064 110.131C203.354 110.131 203.632 110.091 203.9 110.011C204.167 109.932 204.409 109.814 204.628 109.658C204.85 109.499 205.037 109.304 205.191 109.074C205.347 108.841 205.456 108.574 205.519 108.273H206.576C206.496 108.719 206.351 109.118 206.141 109.47C205.931 109.822 205.669 110.122 205.357 110.369C205.044 110.614 204.694 110.8 204.304 110.928C203.918 111.055 203.505 111.119 203.064 111.119C202.32 111.119 201.658 110.938 201.078 110.574C200.499 110.21 200.043 109.693 199.711 109.023C199.378 108.352 199.212 107.557 199.212 106.636C199.212 105.716 199.378 104.92 199.711 104.25C200.043 103.58 200.499 103.062 201.078 102.699C201.658 102.335 202.32 102.153 203.064 102.153C203.505 102.153 203.918 102.217 204.304 102.345C204.694 102.473 205.044 102.661 205.357 102.908C205.669 103.152 205.931 103.45 206.141 103.803C206.351 104.152 206.496 104.551 206.576 105ZM208.147 111V104.455H209.153V111H208.147ZM208.658 103.364C208.462 103.364 208.293 103.297 208.151 103.163C208.012 103.03 207.942 102.869 207.942 102.682C207.942 102.494 208.012 102.334 208.151 102.2C208.293 102.067 208.462 102 208.658 102C208.854 102 209.022 102.067 209.161 102.2C209.303 102.334 209.374 102.494 209.374 102.682C209.374 102.869 209.303 103.03 209.161 103.163C209.022 103.297 208.854 103.364 208.658 103.364ZM210.995 111V104.455H211.966V105.443H212.034C212.154 105.119 212.37 104.857 212.682 104.655C212.995 104.453 213.347 104.352 213.739 104.352C213.813 104.352 213.905 104.354 214.016 104.357C214.127 104.359 214.211 104.364 214.267 104.369V105.392C214.233 105.384 214.155 105.371 214.033 105.354C213.914 105.334 213.787 105.324 213.654 105.324C213.336 105.324 213.051 105.391 212.801 105.524C212.554 105.655 212.358 105.837 212.213 106.07C212.071 106.3 212 106.562 212 106.858V111H210.995ZM217.919 111.136C217.306 111.136 216.777 110.991 216.334 110.702C215.891 110.412 215.55 110.013 215.311 109.504C215.073 108.996 214.953 108.415 214.953 107.761C214.953 107.097 215.076 106.51 215.32 106.001C215.567 105.49 215.911 105.091 216.351 104.804C216.794 104.514 217.311 104.369 217.902 104.369C218.363 104.369 218.777 104.455 219.147 104.625C219.516 104.795 219.819 105.034 220.054 105.341C220.29 105.648 220.436 106.006 220.493 106.415H219.488C219.411 106.116 219.24 105.852 218.976 105.622C218.715 105.389 218.363 105.273 217.919 105.273C217.527 105.273 217.184 105.375 216.888 105.58C216.596 105.781 216.367 106.067 216.202 106.436C216.04 106.803 215.959 107.233 215.959 107.727C215.959 108.233 216.039 108.673 216.198 109.048C216.36 109.423 216.587 109.714 216.88 109.922C217.175 110.129 217.522 110.233 217.919 110.233C218.181 110.233 218.418 110.188 218.631 110.097C218.844 110.006 219.025 109.875 219.172 109.705C219.32 109.534 219.425 109.33 219.488 109.091H220.493C220.436 109.477 220.296 109.825 220.071 110.135C219.85 110.442 219.556 110.686 219.189 110.868C218.826 111.047 218.402 111.136 217.919 111.136ZM222.969 102.273V111H221.963V102.273H222.969ZM227.555 111.136C226.925 111.136 226.381 110.997 225.923 110.719C225.469 110.438 225.118 110.045 224.871 109.543C224.626 109.037 224.504 108.449 224.504 107.778C224.504 107.108 224.626 106.517 224.871 106.006C225.118 105.491 225.462 105.091 225.902 104.804C226.345 104.514 226.862 104.369 227.453 104.369C227.794 104.369 228.131 104.426 228.463 104.54C228.795 104.653 229.098 104.838 229.371 105.094C229.643 105.347 229.861 105.682 230.023 106.099C230.185 106.517 230.266 107.031 230.266 107.642V108.068H225.22V107.199H229.243C229.243 106.83 229.169 106.5 229.021 106.21C228.876 105.92 228.669 105.692 228.399 105.524C228.132 105.357 227.817 105.273 227.453 105.273C227.053 105.273 226.706 105.372 226.413 105.571C226.124 105.767 225.901 106.023 225.744 106.338C225.588 106.653 225.51 106.991 225.51 107.352V107.932C225.51 108.426 225.595 108.845 225.766 109.189C225.939 109.53 226.179 109.79 226.486 109.969C226.793 110.145 227.149 110.233 227.555 110.233C227.82 110.233 228.058 110.196 228.271 110.122C228.487 110.045 228.673 109.932 228.83 109.781C228.986 109.628 229.107 109.437 229.192 109.21L230.163 109.483C230.061 109.812 229.889 110.102 229.648 110.352C229.406 110.599 229.108 110.793 228.753 110.932C228.398 111.068 227.999 111.136 227.555 111.136ZM164.057 120.92L163.153 121.176C163.097 121.026 163.013 120.879 162.902 120.737C162.794 120.592 162.646 120.473 162.459 120.379C162.271 120.286 162.031 120.239 161.739 120.239C161.338 120.239 161.004 120.331 160.737 120.516C160.473 120.697 160.341 120.929 160.341 121.21C160.341 121.46 160.432 121.658 160.614 121.803C160.795 121.947 161.08 122.068 161.466 122.165L162.438 122.403C163.023 122.545 163.459 122.763 163.746 123.055C164.033 123.345 164.176 123.719 164.176 124.176C164.176 124.551 164.068 124.886 163.852 125.182C163.639 125.477 163.341 125.71 162.957 125.881C162.574 126.051 162.128 126.136 161.619 126.136C160.952 126.136 160.399 125.991 159.962 125.702C159.524 125.412 159.247 124.989 159.131 124.432L160.085 124.193C160.176 124.545 160.348 124.81 160.601 124.986C160.857 125.162 161.19 125.25 161.602 125.25C162.071 125.25 162.443 125.151 162.719 124.952C162.997 124.75 163.136 124.509 163.136 124.227C163.136 124 163.057 123.81 162.898 123.656C162.739 123.5 162.494 123.384 162.165 123.307L161.074 123.051C160.474 122.909 160.034 122.689 159.753 122.391C159.474 122.089 159.335 121.713 159.335 121.261C159.335 120.892 159.439 120.565 159.646 120.281C159.857 119.997 160.142 119.774 160.503 119.612C160.866 119.45 161.278 119.369 161.739 119.369C162.386 119.369 162.895 119.511 163.264 119.795C163.636 120.08 163.901 120.455 164.057 120.92ZM165.69 126V119.455H166.696V126H165.69ZM166.201 118.364C166.005 118.364 165.836 118.297 165.694 118.163C165.555 118.03 165.485 117.869 165.485 117.682C165.485 117.494 165.555 117.334 165.694 117.2C165.836 117.067 166.005 117 166.201 117C166.397 117 166.565 117.067 166.704 117.2C166.846 117.334 166.917 117.494 166.917 117.682C166.917 117.869 166.846 118.03 166.704 118.163C166.565 118.297 166.397 118.364 166.201 118.364ZM168.35 126V125.233L172.066 120.46V120.392H168.469V119.455H173.362V120.256L169.748 124.994V125.062H173.481V126H168.35ZM177.587 126.136C176.956 126.136 176.412 125.997 175.955 125.719C175.5 125.438 175.149 125.045 174.902 124.543C174.658 124.037 174.536 123.449 174.536 122.778C174.536 122.108 174.658 121.517 174.902 121.006C175.149 120.491 175.493 120.091 175.933 119.804C176.376 119.514 176.893 119.369 177.484 119.369C177.825 119.369 178.162 119.426 178.494 119.54C178.827 119.653 179.129 119.838 179.402 120.094C179.675 120.347 179.892 120.682 180.054 121.099C180.216 121.517 180.297 122.031 180.297 122.642V123.068H175.251V122.199H179.274C179.274 121.83 179.2 121.5 179.053 121.21C178.908 120.92 178.7 120.692 178.43 120.524C178.163 120.357 177.848 120.273 177.484 120.273C177.084 120.273 176.737 120.372 176.445 120.571C176.155 120.767 175.932 121.023 175.776 121.338C175.619 121.653 175.541 121.991 175.541 122.352V122.932C175.541 123.426 175.626 123.845 175.797 124.189C175.97 124.53 176.21 124.79 176.517 124.969C176.824 125.145 177.18 125.233 177.587 125.233C177.851 125.233 178.089 125.196 178.303 125.122C178.518 125.045 178.705 124.932 178.861 124.781C179.017 124.628 179.138 124.437 179.223 124.21L180.195 124.483C180.092 124.812 179.92 125.102 179.679 125.352C179.438 125.599 179.139 125.793 178.784 125.932C178.429 126.068 178.03 126.136 177.587 126.136ZM185.611 120.835V119.915H190.861V120.835H185.611ZM185.611 123.358V122.438H190.861V123.358H185.611ZM196.47 126V125.233L199.35 122.08C199.689 121.71 199.967 121.389 200.186 121.116C200.404 120.841 200.566 120.582 200.672 120.341C200.779 120.097 200.833 119.841 200.833 119.574C200.833 119.267 200.76 119.001 200.612 118.777C200.467 118.553 200.268 118.379 200.015 118.257C199.762 118.135 199.478 118.074 199.163 118.074C198.828 118.074 198.535 118.143 198.285 118.283C198.038 118.419 197.846 118.611 197.71 118.858C197.576 119.105 197.51 119.395 197.51 119.727H196.504C196.504 119.216 196.622 118.767 196.858 118.381C197.093 117.994 197.414 117.693 197.821 117.477C198.23 117.261 198.689 117.153 199.197 117.153C199.708 117.153 200.162 117.261 200.556 117.477C200.951 117.693 201.261 117.984 201.485 118.351C201.71 118.717 201.822 119.125 201.822 119.574C201.822 119.895 201.764 120.209 201.647 120.516C201.534 120.82 201.335 121.159 201.051 121.534C200.77 121.906 200.379 122.361 199.879 122.898L197.919 124.994V125.062H201.975V126H196.47ZM203.343 124.21V123.341L207.179 117.273H207.809V118.619H207.383L204.485 123.205V123.273H209.65V124.21H203.343ZM207.451 126V123.946V123.541V117.273H208.457V126H207.451ZM211.587 126.068C211.377 126.068 211.196 125.993 211.046 125.842C210.895 125.692 210.82 125.511 210.82 125.301C210.82 125.091 210.895 124.911 211.046 124.76C211.196 124.609 211.377 124.534 211.587 124.534C211.797 124.534 211.978 124.609 212.128 124.76C212.279 124.911 212.354 125.091 212.354 125.301C212.354 125.44 212.319 125.568 212.248 125.685C212.179 125.801 212.087 125.895 211.971 125.966C211.857 126.034 211.729 126.068 211.587 126.068ZM216.684 126.119C216.042 126.119 215.495 125.945 215.043 125.595C214.591 125.243 214.246 124.733 214.007 124.065C213.769 123.395 213.65 122.585 213.65 121.636C213.65 120.693 213.769 119.888 214.007 119.22C214.249 118.55 214.596 118.038 215.047 117.686C215.502 117.331 216.047 117.153 216.684 117.153C217.32 117.153 217.864 117.331 218.316 117.686C218.77 118.038 219.117 118.55 219.355 119.22C219.597 119.888 219.718 120.693 219.718 121.636C219.718 122.585 219.598 123.395 219.36 124.065C219.121 124.733 218.776 125.243 218.324 125.595C217.873 125.945 217.326 126.119 216.684 126.119ZM216.684 125.182C217.32 125.182 217.814 124.875 218.167 124.261C218.519 123.648 218.695 122.773 218.695 121.636C218.695 120.881 218.614 120.237 218.452 119.706C218.293 119.175 218.063 118.77 217.762 118.491C217.463 118.213 217.104 118.074 216.684 118.074C216.053 118.074 215.56 118.385 215.205 119.007C214.85 119.626 214.672 120.503 214.672 121.636C214.672 122.392 214.752 123.034 214.911 123.562C215.07 124.091 215.299 124.493 215.597 124.768C215.898 125.044 216.26 125.182 216.684 125.182Z" fill="black"/>
<path d="M452.267 104.455V105.307H448.875V104.455H452.267ZM449.864 102.886H450.869V109.125C450.869 109.409 450.911 109.622 450.993 109.764C451.078 109.903 451.186 109.997 451.317 110.045C451.45 110.091 451.591 110.114 451.739 110.114C451.849 110.114 451.94 110.108 452.011 110.097C452.082 110.082 452.139 110.071 452.182 110.062L452.386 110.966C452.318 110.991 452.223 111.017 452.101 111.043C451.979 111.071 451.824 111.085 451.636 111.085C451.352 111.085 451.074 111.024 450.801 110.902C450.531 110.78 450.307 110.594 450.128 110.344C449.952 110.094 449.864 109.778 449.864 109.398V102.886ZM454.428 113.455C454.257 113.455 454.105 113.44 453.972 113.412C453.838 113.386 453.746 113.361 453.695 113.335L453.95 112.449C454.195 112.511 454.411 112.534 454.598 112.517C454.786 112.5 454.952 112.416 455.097 112.266C455.244 112.118 455.379 111.878 455.501 111.545L455.689 111.034L453.268 104.455H454.359L456.166 109.67H456.234L458.041 104.455H459.132L456.354 111.955C456.229 112.293 456.074 112.572 455.889 112.794C455.705 113.018 455.49 113.185 455.246 113.293C455.004 113.401 454.732 113.455 454.428 113.455ZM460.46 113.455V104.455H461.431V105.494H461.55C461.624 105.381 461.727 105.236 461.857 105.06C461.991 104.881 462.181 104.722 462.428 104.582C462.678 104.44 463.016 104.369 463.442 104.369C463.994 104.369 464.479 104.507 464.9 104.783C465.32 105.058 465.648 105.449 465.884 105.955C466.12 106.46 466.238 107.057 466.238 107.744C466.238 108.438 466.12 109.038 465.884 109.547C465.648 110.053 465.322 110.445 464.904 110.723C464.487 110.999 464.005 111.136 463.46 111.136C463.039 111.136 462.702 111.067 462.45 110.928C462.197 110.786 462.002 110.625 461.866 110.446C461.729 110.264 461.624 110.114 461.55 109.994H461.465V113.455H460.46ZM461.448 107.727C461.448 108.222 461.521 108.658 461.665 109.036C461.81 109.411 462.022 109.705 462.3 109.918C462.579 110.128 462.92 110.233 463.323 110.233C463.744 110.233 464.094 110.122 464.376 109.901C464.66 109.676 464.873 109.375 465.015 108.997C465.16 108.616 465.232 108.193 465.232 107.727C465.232 107.267 465.161 106.852 465.019 106.483C464.88 106.111 464.668 105.817 464.384 105.601C464.103 105.382 463.749 105.273 463.323 105.273C462.914 105.273 462.57 105.376 462.292 105.584C462.013 105.788 461.803 106.075 461.661 106.445C461.519 106.811 461.448 107.239 461.448 107.727ZM470.516 111.136C469.886 111.136 469.342 110.997 468.884 110.719C468.43 110.438 468.079 110.045 467.832 109.543C467.587 109.037 467.465 108.449 467.465 107.778C467.465 107.108 467.587 106.517 467.832 106.006C468.079 105.491 468.423 105.091 468.863 104.804C469.306 104.514 469.823 104.369 470.414 104.369C470.755 104.369 471.092 104.426 471.424 104.54C471.756 104.653 472.059 104.838 472.332 105.094C472.604 105.347 472.822 105.682 472.984 106.099C473.146 106.517 473.227 107.031 473.227 107.642V108.068H468.181V107.199H472.204C472.204 106.83 472.13 106.5 471.982 106.21C471.837 105.92 471.63 105.692 471.36 105.524C471.093 105.357 470.778 105.273 470.414 105.273C470.013 105.273 469.667 105.372 469.374 105.571C469.085 105.767 468.862 106.023 468.705 106.338C468.549 106.653 468.471 106.991 468.471 107.352V107.932C468.471 108.426 468.556 108.845 468.727 109.189C468.9 109.53 469.14 109.79 469.447 109.969C469.754 110.145 470.11 110.233 470.516 110.233C470.781 110.233 471.019 110.196 471.232 110.122C471.448 110.045 471.634 109.932 471.79 109.781C471.947 109.628 472.067 109.437 472.153 109.21L473.124 109.483C473.022 109.812 472.85 110.102 472.609 110.352C472.367 110.599 472.069 110.793 471.714 110.932C471.359 111.068 470.96 111.136 470.516 111.136ZM478.54 105.835V104.915H483.79V105.835H478.54ZM478.54 108.358V107.438H483.79V108.358H478.54ZM494.326 104.455C494.275 104.023 494.067 103.688 493.703 103.449C493.34 103.21 492.894 103.091 492.365 103.091C491.979 103.091 491.641 103.153 491.351 103.278C491.064 103.403 490.84 103.575 490.678 103.794C490.519 104.013 490.439 104.261 490.439 104.54C490.439 104.773 490.495 104.973 490.605 105.141C490.719 105.305 490.864 105.443 491.04 105.554C491.216 105.662 491.401 105.751 491.594 105.822C491.787 105.891 491.965 105.946 492.127 105.989L493.013 106.227C493.24 106.287 493.493 106.369 493.772 106.474C494.053 106.58 494.321 106.723 494.577 106.905C494.836 107.084 495.049 107.314 495.216 107.595C495.384 107.876 495.468 108.222 495.468 108.631C495.468 109.102 495.344 109.528 495.097 109.909C494.853 110.29 494.495 110.592 494.023 110.817C493.554 111.041 492.985 111.153 492.314 111.153C491.689 111.153 491.148 111.053 490.691 110.851C490.236 110.649 489.878 110.368 489.617 110.007C489.358 109.646 489.212 109.227 489.178 108.75H490.269C490.297 109.08 490.408 109.352 490.601 109.568C490.797 109.781 491.044 109.94 491.343 110.045C491.644 110.148 491.968 110.199 492.314 110.199C492.718 110.199 493.08 110.134 493.401 110.003C493.722 109.869 493.976 109.685 494.164 109.449C494.351 109.21 494.445 108.932 494.445 108.614C494.445 108.324 494.364 108.088 494.202 107.906C494.04 107.724 493.827 107.577 493.563 107.463C493.299 107.349 493.013 107.25 492.706 107.165L491.632 106.858C490.951 106.662 490.411 106.382 490.013 106.018C489.615 105.655 489.417 105.179 489.417 104.591C489.417 104.102 489.549 103.676 489.813 103.312C490.08 102.946 490.438 102.662 490.887 102.46C491.338 102.256 491.843 102.153 492.4 102.153C492.962 102.153 493.462 102.254 493.9 102.456C494.337 102.655 494.684 102.928 494.939 103.274C495.198 103.621 495.334 104.014 495.348 104.455H494.326ZM501.535 113.455V109.994H501.45C501.376 110.114 501.271 110.264 501.134 110.446C500.998 110.625 500.803 110.786 500.55 110.928C500.298 111.067 499.961 111.136 499.54 111.136C498.995 111.136 498.513 110.999 498.096 110.723C497.678 110.445 497.352 110.053 497.116 109.547C496.88 109.038 496.762 108.438 496.762 107.744C496.762 107.057 496.88 106.46 497.116 105.955C497.352 105.449 497.68 105.058 498.1 104.783C498.521 104.507 499.006 104.369 499.558 104.369C499.984 104.369 500.32 104.44 500.567 104.582C500.817 104.722 501.008 104.881 501.138 105.06C501.272 105.236 501.376 105.381 501.45 105.494H501.569V104.455H502.54V113.455H501.535ZM499.677 110.233C500.08 110.233 500.421 110.128 500.7 109.918C500.978 109.705 501.19 109.411 501.335 109.036C501.479 108.658 501.552 108.222 501.552 107.727C501.552 107.239 501.481 106.811 501.339 106.445C501.197 106.075 500.987 105.788 500.708 105.584C500.43 105.376 500.086 105.273 499.677 105.273C499.251 105.273 498.896 105.382 498.612 105.601C498.33 105.817 498.119 106.111 497.977 106.483C497.837 106.852 497.768 107.267 497.768 107.727C497.768 108.193 497.839 108.616 497.981 108.997C498.126 109.375 498.339 109.676 498.62 109.901C498.904 110.122 499.256 110.233 499.677 110.233ZM508.506 108.324V104.455H509.512V111H508.506V109.892H508.438C508.285 110.224 508.046 110.507 507.722 110.74C507.398 110.97 506.989 111.085 506.495 111.085C506.086 111.085 505.722 110.996 505.404 110.817C505.086 110.635 504.836 110.362 504.654 109.999C504.472 109.632 504.381 109.17 504.381 108.614V104.455H505.387V108.545C505.387 109.023 505.521 109.403 505.788 109.688C506.058 109.972 506.401 110.114 506.819 110.114C507.069 110.114 507.323 110.05 507.582 109.922C507.843 109.794 508.062 109.598 508.238 109.334C508.417 109.07 508.506 108.733 508.506 108.324ZM513.28 111.153C512.865 111.153 512.489 111.075 512.151 110.919C511.813 110.76 511.544 110.531 511.346 110.233C511.147 109.932 511.047 109.568 511.047 109.142C511.047 108.767 511.121 108.463 511.269 108.23C511.417 107.994 511.614 107.81 511.861 107.676C512.108 107.543 512.381 107.443 512.679 107.378C512.98 107.31 513.283 107.256 513.587 107.216C513.985 107.165 514.307 107.126 514.554 107.101C514.804 107.072 514.986 107.026 515.1 106.96C515.216 106.895 515.275 106.781 515.275 106.619V106.585C515.275 106.165 515.159 105.838 514.929 105.605C514.702 105.372 514.357 105.256 513.894 105.256C513.414 105.256 513.037 105.361 512.765 105.571C512.492 105.781 512.3 106.006 512.189 106.244L511.235 105.903C511.405 105.506 511.632 105.196 511.917 104.974C512.203 104.75 512.516 104.594 512.854 104.506C513.195 104.415 513.53 104.369 513.86 104.369C514.07 104.369 514.311 104.395 514.584 104.446C514.86 104.494 515.125 104.595 515.381 104.749C515.64 104.902 515.854 105.134 516.025 105.443C516.195 105.753 516.28 106.168 516.28 106.688V111H515.275V110.114H515.223C515.155 110.256 515.042 110.408 514.882 110.57C514.723 110.732 514.512 110.869 514.248 110.983C513.983 111.097 513.661 111.153 513.28 111.153ZM513.434 110.25C513.831 110.25 514.167 110.172 514.439 110.016C514.715 109.859 514.922 109.658 515.061 109.411C515.203 109.163 515.275 108.903 515.275 108.631V107.71C515.232 107.761 515.138 107.808 514.993 107.851C514.851 107.891 514.686 107.926 514.499 107.957C514.314 107.986 514.134 108.011 513.958 108.034C513.784 108.054 513.644 108.071 513.536 108.085C513.275 108.119 513.03 108.175 512.803 108.251C512.578 108.325 512.397 108.437 512.257 108.588C512.121 108.736 512.053 108.937 512.053 109.193C512.053 109.543 512.182 109.807 512.441 109.986C512.702 110.162 513.033 110.25 513.434 110.25ZM518.116 111V104.455H519.087V105.443H519.156C519.275 105.119 519.491 104.857 519.803 104.655C520.116 104.453 520.468 104.352 520.86 104.352C520.934 104.352 521.026 104.354 521.137 104.357C521.248 104.359 521.332 104.364 521.388 104.369V105.392C521.354 105.384 521.276 105.371 521.154 105.354C521.035 105.334 520.908 105.324 520.775 105.324C520.457 105.324 520.173 105.391 519.923 105.524C519.675 105.655 519.479 105.837 519.335 106.07C519.192 106.3 519.121 106.562 519.121 106.858V111H518.116ZM525.126 111.136C524.495 111.136 523.951 110.997 523.494 110.719C523.039 110.438 522.688 110.045 522.441 109.543C522.197 109.037 522.075 108.449 522.075 107.778C522.075 107.108 522.197 106.517 522.441 106.006C522.688 105.491 523.032 105.091 523.472 104.804C523.915 104.514 524.433 104.369 525.023 104.369C525.364 104.369 525.701 104.426 526.033 104.54C526.366 104.653 526.668 104.838 526.941 105.094C527.214 105.347 527.431 105.682 527.593 106.099C527.755 106.517 527.836 107.031 527.836 107.642V108.068H522.79V107.199H526.813C526.813 106.83 526.739 106.5 526.592 106.21C526.447 105.92 526.239 105.692 525.969 105.524C525.702 105.357 525.387 105.273 525.023 105.273C524.623 105.273 524.276 105.372 523.984 105.571C523.694 105.767 523.471 106.023 523.315 106.338C523.158 106.653 523.08 106.991 523.08 107.352V107.932C523.08 108.426 523.165 108.845 523.336 109.189C523.509 109.53 523.749 109.79 524.056 109.969C524.363 110.145 524.719 110.233 525.126 110.233C525.39 110.233 525.629 110.196 525.842 110.122C526.058 110.045 526.244 109.932 526.4 109.781C526.556 109.628 526.677 109.437 526.762 109.21L527.734 109.483C527.631 109.812 527.46 110.102 527.218 110.352C526.977 110.599 526.678 110.793 526.323 110.932C525.968 111.068 525.569 111.136 525.126 111.136ZM454.057 120.92L453.153 121.176C453.097 121.026 453.013 120.879 452.902 120.737C452.794 120.592 452.646 120.473 452.459 120.379C452.271 120.286 452.031 120.239 451.739 120.239C451.338 120.239 451.004 120.331 450.737 120.516C450.473 120.697 450.341 120.929 450.341 121.21C450.341 121.46 450.432 121.658 450.614 121.803C450.795 121.947 451.08 122.068 451.466 122.165L452.438 122.403C453.023 122.545 453.459 122.763 453.746 123.055C454.033 123.345 454.176 123.719 454.176 124.176C454.176 124.551 454.068 124.886 453.852 125.182C453.639 125.477 453.341 125.71 452.957 125.881C452.574 126.051 452.128 126.136 451.619 126.136C450.952 126.136 450.399 125.991 449.962 125.702C449.524 125.412 449.247 124.989 449.131 124.432L450.085 124.193C450.176 124.545 450.348 124.81 450.601 124.986C450.857 125.162 451.19 125.25 451.602 125.25C452.071 125.25 452.443 125.151 452.719 124.952C452.997 124.75 453.136 124.509 453.136 124.227C453.136 124 453.057 123.81 452.898 123.656C452.739 123.5 452.494 123.384 452.165 123.307L451.074 123.051C450.474 122.909 450.034 122.689 449.753 122.391C449.474 122.089 449.335 121.713 449.335 121.261C449.335 120.892 449.439 120.565 449.646 120.281C449.857 119.997 450.142 119.774 450.503 119.612C450.866 119.45 451.278 119.369 451.739 119.369C452.386 119.369 452.895 119.511 453.264 119.795C453.636 120.08 453.901 120.455 454.057 120.92ZM455.69 126V119.455H456.696V126H455.69ZM456.201 118.364C456.005 118.364 455.836 118.297 455.694 118.163C455.555 118.03 455.485 117.869 455.485 117.682C455.485 117.494 455.555 117.334 455.694 117.2C455.836 117.067 456.005 117 456.201 117C456.397 117 456.565 117.067 456.704 117.2C456.846 117.334 456.917 117.494 456.917 117.682C456.917 117.869 456.846 118.03 456.704 118.163C456.565 118.297 456.397 118.364 456.201 118.364ZM458.35 126V125.233L462.066 120.46V120.392H458.469V119.455H463.362V120.256L459.748 124.994V125.062H463.481V126H458.35ZM467.587 126.136C466.956 126.136 466.412 125.997 465.955 125.719C465.5 125.438 465.149 125.045 464.902 124.543C464.658 124.037 464.536 123.449 464.536 122.778C464.536 122.108 464.658 121.517 464.902 121.006C465.149 120.491 465.493 120.091 465.933 119.804C466.376 119.514 466.893 119.369 467.484 119.369C467.825 119.369 468.162 119.426 468.494 119.54C468.827 119.653 469.129 119.838 469.402 120.094C469.675 120.347 469.892 120.682 470.054 121.099C470.216 121.517 470.297 122.031 470.297 122.642V123.068H465.251V122.199H469.274C469.274 121.83 469.2 121.5 469.053 121.21C468.908 120.92 468.7 120.692 468.43 120.524C468.163 120.357 467.848 120.273 467.484 120.273C467.084 120.273 466.737 120.372 466.445 120.571C466.155 120.767 465.932 121.023 465.776 121.338C465.619 121.653 465.541 121.991 465.541 122.352V122.932C465.541 123.426 465.626 123.845 465.797 124.189C465.97 124.53 466.21 124.79 466.517 124.969C466.824 125.145 467.18 125.233 467.587 125.233C467.851 125.233 468.089 125.196 468.303 125.122C468.518 125.045 468.705 124.932 468.861 124.781C469.017 124.628 469.138 124.437 469.223 124.21L470.195 124.483C470.092 124.812 469.92 125.102 469.679 125.352C469.438 125.599 469.139 125.793 468.784 125.932C468.429 126.068 468.03 126.136 467.587 126.136ZM475.611 120.835V119.915H480.861V120.835H475.611ZM475.611 123.358V122.438H480.861V123.358H475.611ZM486.47 126V125.233L489.35 122.08C489.689 121.71 489.967 121.389 490.186 121.116C490.404 120.841 490.566 120.582 490.672 120.341C490.779 120.097 490.833 119.841 490.833 119.574C490.833 119.267 490.76 119.001 490.612 118.777C490.467 118.553 490.268 118.379 490.015 118.257C489.762 118.135 489.478 118.074 489.163 118.074C488.828 118.074 488.535 118.143 488.285 118.283C488.038 118.419 487.846 118.611 487.71 118.858C487.576 119.105 487.51 119.395 487.51 119.727H486.504C486.504 119.216 486.622 118.767 486.858 118.381C487.093 117.994 487.414 117.693 487.821 117.477C488.23 117.261 488.689 117.153 489.197 117.153C489.708 117.153 490.162 117.261 490.556 117.477C490.951 117.693 491.261 117.984 491.485 118.351C491.71 118.717 491.822 119.125 491.822 119.574C491.822 119.895 491.764 120.209 491.647 120.516C491.534 120.82 491.335 121.159 491.051 121.534C490.77 121.906 490.379 122.361 489.879 122.898L487.919 124.994V125.062H491.975V126H486.47ZM493.343 124.21V123.341L497.179 117.273H497.809V118.619H497.383L494.485 123.205V123.273H499.65V124.21H493.343ZM497.451 126V123.946V123.541V117.273H498.457V126H497.451ZM501.587 126.068C501.377 126.068 501.196 125.993 501.046 125.842C500.895 125.692 500.82 125.511 500.82 125.301C500.82 125.091 500.895 124.911 501.046 124.76C501.196 124.609 501.377 124.534 501.587 124.534C501.797 124.534 501.978 124.609 502.128 124.76C502.279 124.911 502.354 125.091 502.354 125.301C502.354 125.44 502.319 125.568 502.248 125.685C502.179 125.801 502.087 125.895 501.971 125.966C501.857 126.034 501.729 126.068 501.587 126.068ZM506.684 126.119C506.042 126.119 505.495 125.945 505.043 125.595C504.591 125.243 504.246 124.733 504.007 124.065C503.769 123.395 503.65 122.585 503.65 121.636C503.65 120.693 503.769 119.888 504.007 119.22C504.249 118.55 504.596 118.038 505.047 117.686C505.502 117.331 506.047 117.153 506.684 117.153C507.32 117.153 507.864 117.331 508.316 117.686C508.77 118.038 509.117 118.55 509.355 119.22C509.597 119.888 509.718 120.693 509.718 121.636C509.718 122.585 509.598 123.395 509.36 124.065C509.121 124.733 508.776 125.243 508.324 125.595C507.873 125.945 507.326 126.119 506.684 126.119ZM506.684 125.182C507.32 125.182 507.814 124.875 508.167 124.261C508.519 123.648 508.695 122.773 508.695 121.636C508.695 120.881 508.614 120.237 508.452 119.706C508.293 119.175 508.063 118.77 507.762 118.491C507.463 118.213 507.104 118.074 506.684 118.074C506.053 118.074 505.56 118.385 505.205 119.007C504.85 119.626 504.672 120.503 504.672 121.636C504.672 122.392 504.752 123.034 504.911 123.562C505.07 124.091 505.299 124.493 505.597 124.768C505.898 125.044 506.26 125.182 506.684 125.182Z" fill="black"/>
<path d="M449.233 162.114C448.741 162.114 448.308 161.996 447.937 161.762C447.567 161.528 447.279 161.2 447.07 160.778C446.864 160.357 446.761 159.865 446.761 159.301C446.761 158.733 446.864 158.237 447.07 157.813C447.279 157.389 447.567 157.06 447.937 156.826C448.308 156.592 448.741 156.474 449.233 156.474C449.725 156.474 450.156 156.592 450.526 156.826C450.897 157.06 451.186 157.389 451.392 157.813C451.6 158.237 451.705 158.733 451.705 159.301C451.705 159.865 451.6 160.357 451.392 160.778C451.186 161.2 450.897 161.528 450.526 161.762C450.156 161.996 449.725 162.114 449.233 162.114ZM449.233 161.361C449.607 161.361 449.915 161.265 450.156 161.073C450.398 160.881 450.576 160.629 450.692 160.317C450.808 160.004 450.866 159.666 450.866 159.301C450.866 158.937 450.808 158.597 450.692 158.282C450.576 157.967 450.398 157.713 450.156 157.518C449.915 157.324 449.607 157.227 449.233 157.227C448.859 157.227 448.551 157.324 448.31 157.518C448.068 157.713 447.889 157.967 447.773 158.282C447.657 158.597 447.599 158.937 447.599 159.301C447.599 159.666 447.657 160.004 447.773 160.317C447.889 160.629 448.068 160.881 448.31 161.073C448.551 161.265 448.859 161.361 449.233 161.361ZM457.249 156.545L455.232 162H454.379L452.362 156.545H453.271L454.777 160.892H454.834L456.34 156.545H457.249ZM460.447 162.114C459.921 162.114 459.468 161.998 459.086 161.766C458.708 161.531 458.415 161.205 458.209 160.786C458.006 160.364 457.904 159.874 457.904 159.315C457.904 158.757 458.006 158.264 458.209 157.838C458.415 157.41 458.702 157.076 459.069 156.837C459.438 156.595 459.869 156.474 460.361 156.474C460.645 156.474 460.926 156.522 461.203 156.616C461.48 156.711 461.732 156.865 461.959 157.078C462.187 157.289 462.368 157.568 462.503 157.916C462.638 158.264 462.705 158.693 462.705 159.202V159.557H458.501V158.832H461.853C461.853 158.525 461.791 158.25 461.668 158.009C461.547 157.767 461.375 157.576 461.15 157.437C460.927 157.297 460.664 157.227 460.361 157.227C460.028 157.227 459.739 157.31 459.495 157.476C459.253 157.639 459.068 157.852 458.937 158.115C458.807 158.378 458.742 158.66 458.742 158.96V159.443C458.742 159.855 458.813 160.204 458.955 160.491C459.099 160.775 459.3 160.991 459.555 161.141C459.811 161.287 460.108 161.361 460.447 161.361C460.667 161.361 460.866 161.33 461.043 161.268C461.223 161.205 461.378 161.11 461.508 160.984C461.639 160.857 461.739 160.698 461.81 160.509L462.62 160.736C462.535 161.01 462.391 161.252 462.19 161.46C461.989 161.666 461.74 161.827 461.444 161.943C461.148 162.057 460.816 162.114 460.447 162.114ZM463.98 162V156.545H464.79V157.369H464.846C464.946 157.099 465.126 156.88 465.386 156.712C465.647 156.544 465.94 156.46 466.267 156.46C466.328 156.46 466.405 156.461 466.498 156.464C466.59 156.466 466.66 156.47 466.707 156.474V157.327C466.679 157.32 466.614 157.309 466.512 157.295C466.412 157.278 466.307 157.27 466.196 157.27C465.931 157.27 465.694 157.326 465.486 157.437C465.28 157.546 465.116 157.697 464.996 157.891C464.877 158.083 464.818 158.302 464.818 158.548V162H463.98ZM467.701 162V156.545H468.51V157.369H468.567C468.667 157.099 468.846 156.88 469.107 156.712C469.367 156.544 469.661 156.46 469.988 156.46C470.049 156.46 470.126 156.461 470.218 156.464C470.311 156.466 470.381 156.47 470.428 156.474V157.327C470.4 157.32 470.334 157.309 470.233 157.295C470.133 157.278 470.028 157.27 469.917 157.27C469.651 157.27 469.415 157.326 469.206 157.437C469 157.546 468.837 157.697 468.716 157.891C468.598 158.083 468.539 158.302 468.539 158.548V162H467.701ZM471.421 162V156.545H472.259V162H471.421ZM471.847 155.636C471.684 155.636 471.543 155.581 471.425 155.469C471.309 155.358 471.251 155.224 471.251 155.068C471.251 154.912 471.309 154.778 471.425 154.667C471.543 154.556 471.684 154.5 471.847 154.5C472.011 154.5 472.151 154.556 472.267 154.667C472.385 154.778 472.444 154.912 472.444 155.068C472.444 155.224 472.385 155.358 472.267 155.469C472.151 155.581 472.011 155.636 471.847 155.636ZM475.854 162.114C475.4 162.114 474.998 161.999 474.65 161.769C474.302 161.537 474.03 161.21 473.833 160.789C473.637 160.365 473.539 159.865 473.539 159.287C473.539 158.714 473.637 158.217 473.833 157.795C474.03 157.374 474.303 157.049 474.654 156.819C475.004 156.589 475.409 156.474 475.868 156.474C476.223 156.474 476.504 156.534 476.71 156.652C476.918 156.768 477.077 156.901 477.186 157.05C477.297 157.196 477.383 157.317 477.445 157.412H477.516V154.727H478.354V162H477.544V161.162H477.445C477.383 161.261 477.296 161.387 477.182 161.538C477.069 161.687 476.906 161.821 476.696 161.94C476.485 162.056 476.204 162.114 475.854 162.114ZM475.968 161.361C476.304 161.361 476.588 161.273 476.82 161.098C477.052 160.92 477.228 160.675 477.349 160.363C477.47 160.048 477.53 159.685 477.53 159.273C477.53 158.866 477.471 158.509 477.353 158.204C477.234 157.896 477.059 157.657 476.827 157.487C476.595 157.314 476.309 157.227 475.968 157.227C475.613 157.227 475.317 157.318 475.08 157.501C474.846 157.681 474.669 157.926 474.551 158.236C474.435 158.544 474.377 158.889 474.377 159.273C474.377 159.661 474.436 160.014 474.554 160.331C474.675 160.646 474.853 160.897 475.087 161.084C475.324 161.268 475.617 161.361 475.968 161.361ZM482.292 162.114C481.767 162.114 481.313 161.998 480.932 161.766C480.553 161.531 480.261 161.205 480.055 160.786C479.851 160.364 479.75 159.874 479.75 159.315C479.75 158.757 479.851 158.264 480.055 157.838C480.261 157.41 480.547 157.076 480.914 156.837C481.284 156.595 481.715 156.474 482.207 156.474C482.491 156.474 482.772 156.522 483.049 156.616C483.326 156.711 483.578 156.865 483.805 157.078C484.032 157.289 484.213 157.568 484.348 157.916C484.483 158.264 484.551 158.693 484.551 159.202V159.557H480.346V158.832H483.699C483.699 158.525 483.637 158.25 483.514 158.009C483.393 157.767 483.22 157.576 482.995 157.437C482.773 157.297 482.51 157.227 482.207 157.227C481.873 157.227 481.584 157.31 481.341 157.476C481.099 157.639 480.913 157.852 480.783 158.115C480.653 158.378 480.588 158.66 480.588 158.96V159.443C480.588 159.855 480.659 160.204 480.801 160.491C480.945 160.775 481.145 160.991 481.401 161.141C481.657 161.287 481.954 161.361 482.292 161.361C482.512 161.361 482.711 161.33 482.889 161.268C483.069 161.205 483.224 161.11 483.354 160.984C483.484 160.857 483.585 160.698 483.656 160.509L484.466 160.736C484.38 161.01 484.237 161.252 484.036 161.46C483.835 161.666 483.586 161.827 483.29 161.943C482.994 162.057 482.662 162.114 482.292 162.114ZM489.59 162V162.781H485.044V162H489.59ZM492.719 156.545V157.256H489.893V156.545H492.719ZM490.716 155.239H491.555V160.438C491.555 160.674 491.589 160.852 491.657 160.97C491.729 161.086 491.818 161.164 491.927 161.205C492.039 161.242 492.156 161.261 492.279 161.261C492.371 161.261 492.447 161.257 492.506 161.247C492.565 161.235 492.613 161.226 492.648 161.219L492.819 161.972C492.762 161.993 492.683 162.014 492.581 162.036C492.479 162.059 492.35 162.071 492.194 162.071C491.957 162.071 491.725 162.02 491.498 161.918C491.273 161.817 491.086 161.661 490.937 161.453C490.79 161.245 490.716 160.982 490.716 160.665V155.239ZM494.52 164.045C494.378 164.045 494.251 164.034 494.14 164.01C494.028 163.989 493.952 163.967 493.909 163.946L494.122 163.207C494.326 163.259 494.506 163.278 494.662 163.264C494.818 163.25 494.956 163.18 495.077 163.055C495.2 162.932 495.313 162.732 495.415 162.455L495.571 162.028L493.554 156.545H494.463L495.969 160.892H496.025L497.531 156.545H498.44L496.125 162.795C496.021 163.077 495.892 163.31 495.738 163.495C495.584 163.682 495.405 163.821 495.202 163.911C495 164 494.773 164.045 494.52 164.045ZM499.546 164.045V156.545H500.356V157.412H500.455C500.517 157.317 500.602 157.196 500.711 157.05C500.822 156.901 500.981 156.768 501.187 156.652C501.395 156.534 501.677 156.474 502.032 156.474C502.491 156.474 502.896 156.589 503.247 156.819C503.597 157.049 503.87 157.374 504.067 157.795C504.263 158.217 504.362 158.714 504.362 159.287C504.362 159.865 504.263 160.365 504.067 160.789C503.87 161.21 503.598 161.537 503.25 161.769C502.902 161.999 502.501 162.114 502.046 162.114C501.696 162.114 501.415 162.056 501.205 161.94C500.994 161.821 500.832 161.687 500.718 161.538C500.605 161.387 500.517 161.261 500.455 161.162H500.384V164.045H499.546ZM500.37 159.273C500.37 159.685 500.431 160.048 500.551 160.363C500.672 160.675 500.848 160.92 501.08 161.098C501.312 161.273 501.597 161.361 501.933 161.361C502.283 161.361 502.575 161.268 502.81 161.084C503.047 160.897 503.224 160.646 503.343 160.331C503.463 160.014 503.524 159.661 503.524 159.273C503.524 158.889 503.464 158.544 503.346 158.236C503.23 157.926 503.054 157.681 502.817 157.501C502.583 157.318 502.288 157.227 501.933 157.227C501.592 157.227 501.305 157.314 501.073 157.487C500.841 157.657 500.666 157.896 500.548 158.204C500.429 158.509 500.37 158.866 500.37 159.273ZM507.927 162.114C507.401 162.114 506.948 161.998 506.567 161.766C506.188 161.531 505.896 161.205 505.69 160.786C505.486 160.364 505.384 159.874 505.384 159.315C505.384 158.757 505.486 158.264 505.69 157.838C505.896 157.41 506.182 157.076 506.549 156.837C506.919 156.595 507.349 156.474 507.842 156.474C508.126 156.474 508.406 156.522 508.683 156.616C508.96 156.711 509.213 156.865 509.44 157.078C509.667 157.289 509.848 157.568 509.983 157.916C510.118 158.264 510.186 158.693 510.186 159.202V159.557H505.981V158.832H509.333C509.333 158.525 509.272 158.25 509.149 158.009C509.028 157.767 508.855 157.576 508.63 157.437C508.408 157.297 508.145 157.227 507.842 157.227C507.508 157.227 507.219 157.31 506.975 157.476C506.734 157.639 506.548 157.852 506.418 158.115C506.288 158.378 506.222 158.66 506.222 158.96V159.443C506.222 159.855 506.294 160.204 506.436 160.491C506.58 160.775 506.78 160.991 507.036 161.141C507.291 161.287 507.588 161.361 507.927 161.361C508.147 161.361 508.346 161.33 508.524 161.268C508.704 161.205 508.859 161.11 508.989 160.984C509.119 160.857 509.22 160.698 509.291 160.509L510.1 160.736C510.015 161.01 509.872 161.252 509.671 161.46C509.469 161.666 509.221 161.827 508.925 161.943C508.629 162.057 508.296 162.114 507.927 162.114ZM514.614 158.491V157.724H518.989V158.491H514.614ZM514.614 160.594V159.827H518.989V160.594H514.614ZM526.049 156.545V157.256H523.223V156.545H526.049ZM524.047 155.239H524.885V160.438C524.885 160.674 524.919 160.852 524.988 160.97C525.059 161.086 525.149 161.164 525.257 161.205C525.369 161.242 525.486 161.261 525.609 161.261C525.701 161.261 525.777 161.257 525.836 161.247C525.895 161.235 525.943 161.226 525.978 161.219L526.149 161.972C526.092 161.993 526.013 162.014 525.911 162.036C525.809 162.059 525.68 162.071 525.524 162.071C525.287 162.071 525.055 162.02 524.828 161.918C524.603 161.817 524.416 161.661 524.267 161.453C524.12 161.245 524.047 160.982 524.047 160.665V155.239ZM527.31 162V156.545H528.12V157.369H528.176C528.276 157.099 528.456 156.88 528.716 156.712C528.977 156.544 529.27 156.46 529.597 156.46C529.658 156.46 529.735 156.461 529.828 156.464C529.92 156.466 529.99 156.47 530.037 156.474V157.327C530.009 157.32 529.944 157.309 529.842 157.295C529.743 157.278 529.637 157.27 529.526 157.27C529.261 157.27 529.024 157.326 528.816 157.437C528.61 157.546 528.446 157.697 528.326 157.891C528.207 158.083 528.148 158.302 528.148 158.548V162H527.31ZM534.468 159.77V156.545H535.306V162H534.468V161.077H534.411C534.284 161.354 534.085 161.589 533.815 161.783C533.545 161.975 533.204 162.071 532.792 162.071C532.451 162.071 532.148 161.996 531.883 161.847C531.618 161.696 531.41 161.469 531.258 161.165C531.106 160.86 531.031 160.475 531.031 160.011V156.545H531.869V159.955C531.869 160.352 531.98 160.67 532.203 160.906C532.427 161.143 532.714 161.261 533.062 161.261C533.27 161.261 533.482 161.208 533.698 161.102C533.915 160.995 534.098 160.832 534.244 160.612C534.394 160.391 534.468 160.111 534.468 159.77ZM539.128 162.114C538.603 162.114 538.149 161.998 537.768 161.766C537.389 161.531 537.097 161.205 536.891 160.786C536.687 160.364 536.586 159.874 536.586 159.315C536.586 158.757 536.687 158.264 536.891 157.838C537.097 157.41 537.383 157.076 537.75 156.837C538.12 156.595 538.551 156.474 539.043 156.474C539.327 156.474 539.608 156.522 539.885 156.616C540.162 156.711 540.414 156.865 540.641 157.078C540.868 157.289 541.049 157.568 541.184 157.916C541.319 158.264 541.387 158.693 541.387 159.202V159.557H537.182V158.832H540.534C540.534 158.525 540.473 158.25 540.35 158.009C540.229 157.767 540.056 157.576 539.831 157.437C539.609 157.297 539.346 157.227 539.043 157.227C538.709 157.227 538.42 157.31 538.176 157.476C537.935 157.639 537.749 157.852 537.619 158.115C537.489 158.378 537.424 158.66 537.424 158.96V159.443C537.424 159.855 537.495 160.204 537.637 160.491C537.781 160.775 537.981 160.991 538.237 161.141C538.493 161.287 538.79 161.361 539.128 161.361C539.348 161.361 539.547 161.33 539.725 161.268C539.905 161.205 540.06 161.11 540.19 160.984C540.32 160.857 540.421 160.698 540.492 160.509L541.301 160.736C541.216 161.01 541.073 161.252 540.872 161.46C540.671 161.666 540.422 161.827 540.126 161.943C539.83 162.057 539.498 162.114 539.128 162.114Z" fill="white"/>
<path d="M353.767 97V91.5455H354.605V97H353.767ZM354.193 90.6364C354.03 90.6364 353.889 90.5807 353.771 90.4695C353.655 90.3582 353.597 90.2244 353.597 90.0682C353.597 89.9119 353.655 89.7782 353.771 89.6669C353.889 89.5556 354.03 89.5 354.193 89.5C354.357 89.5 354.496 89.5556 354.612 89.6669C354.731 89.7782 354.79 89.9119 354.79 90.0682C354.79 90.2244 354.731 90.3582 354.612 90.4695C354.496 90.5807 354.357 90.6364 354.193 90.6364ZM356.978 93.7188V97H356.14V91.5455H356.95V92.3977H357.021C357.149 92.1207 357.343 91.8982 357.603 91.7301C357.864 91.5597 358.2 91.4744 358.612 91.4744C358.981 91.4744 359.304 91.5502 359.581 91.7017C359.858 91.8509 360.074 92.0781 360.227 92.3835C360.381 92.6866 360.458 93.0701 360.458 93.5341V97H359.62V93.5909C359.62 93.1624 359.509 92.8286 359.286 92.5895C359.064 92.348 358.758 92.2273 358.37 92.2273C358.103 92.2273 357.864 92.2853 357.653 92.4013C357.445 92.5173 357.28 92.6866 357.159 92.9091C357.039 93.1316 356.978 93.4015 356.978 93.7188ZM362.828 93.7188V97H361.99V89.7273H362.828V92.3977H362.899C363.027 92.116 363.218 91.8923 363.474 91.7266C363.732 91.5585 364.075 91.4744 364.504 91.4744C364.876 91.4744 365.201 91.549 365.48 91.6982C365.76 91.8449 365.976 92.071 366.13 92.3764C366.287 92.6795 366.365 93.0653 366.365 93.5341V97H365.527V93.5909C365.527 93.1577 365.414 92.8227 365.189 92.5859C364.967 92.3468 364.658 92.2273 364.262 92.2273C363.988 92.2273 363.742 92.2853 363.524 92.4013C363.308 92.5173 363.138 92.6866 363.012 92.9091C362.889 93.1316 362.828 93.4015 362.828 93.7188ZM370.185 97.1136C369.659 97.1136 369.206 96.9976 368.825 96.7656C368.446 96.5312 368.154 96.2045 367.948 95.7855C367.744 95.3641 367.642 94.8741 367.642 94.3153C367.642 93.7566 367.744 93.2642 367.948 92.8381C368.154 92.4096 368.44 92.0758 368.807 91.8366C369.176 91.5952 369.607 91.4744 370.1 91.4744C370.384 91.4744 370.664 91.5218 370.941 91.6165C371.218 91.7112 371.47 91.8651 371.698 92.0781C371.925 92.2888 372.106 92.5682 372.241 92.9162C372.376 93.2642 372.443 93.6927 372.443 94.2017V94.5568H368.239V93.8324H371.591C371.591 93.5246 371.53 93.25 371.406 93.0085C371.286 92.767 371.113 92.5765 370.888 92.4368C370.665 92.2971 370.403 92.2273 370.1 92.2273C369.766 92.2273 369.477 92.3101 369.233 92.4759C368.992 92.6392 368.806 92.8523 368.676 93.1151C368.545 93.3778 368.48 93.6596 368.48 93.9602V94.4432C368.48 94.8551 368.551 95.2043 368.693 95.4908C368.838 95.7749 369.038 95.9915 369.294 96.1406C369.549 96.2874 369.846 96.3608 370.185 96.3608C370.405 96.3608 370.604 96.33 370.781 96.2685C370.961 96.2045 371.116 96.1098 371.247 95.9844C371.377 95.8565 371.477 95.6979 371.548 95.5085L372.358 95.7358C372.273 96.0104 372.13 96.2519 371.928 96.4602C371.727 96.6662 371.479 96.8272 371.183 96.9432C370.887 97.0568 370.554 97.1136 370.185 97.1136ZM373.718 97V91.5455H374.528V92.3693H374.585C374.684 92.0994 374.864 91.8804 375.124 91.7124C375.385 91.5443 375.678 91.4602 376.005 91.4602C376.067 91.4602 376.144 91.4614 376.236 91.4638C376.328 91.4661 376.398 91.4697 376.445 91.4744V92.3267C376.417 92.3196 376.352 92.3089 376.25 92.2947C376.151 92.2782 376.045 92.2699 375.934 92.2699C375.669 92.2699 375.432 92.3255 375.224 92.4368C375.018 92.5457 374.855 92.6972 374.734 92.8913C374.615 93.0831 374.556 93.3021 374.556 93.5483V97H373.718ZM377.439 97V91.5455H378.277V97H377.439ZM377.865 90.6364C377.702 90.6364 377.561 90.5807 377.442 90.4695C377.326 90.3582 377.268 90.2244 377.268 90.0682C377.268 89.9119 377.326 89.7782 377.442 89.6669C377.561 89.5556 377.702 89.5 377.865 89.5C378.028 89.5 378.168 89.5556 378.284 89.6669C378.402 89.7782 378.462 89.9119 378.462 90.0682C378.462 90.2244 378.402 90.3582 378.284 90.4695C378.168 90.5807 378.028 90.6364 377.865 90.6364ZM382.184 91.5455V92.2557H379.357V91.5455H382.184ZM380.181 90.2386H381.019V95.4375C381.019 95.6742 381.054 95.8518 381.122 95.9702C381.193 96.0862 381.283 96.1643 381.392 96.2045C381.503 96.2424 381.621 96.2614 381.744 96.2614C381.836 96.2614 381.912 96.2566 381.971 96.2472C382.03 96.2353 382.078 96.2259 382.113 96.2188L382.284 96.9716C382.227 96.9929 382.147 97.0142 382.046 97.0355C381.944 97.0592 381.815 97.071 381.659 97.071C381.422 97.071 381.19 97.0201 380.963 96.9183C380.738 96.8165 380.551 96.6615 380.401 96.4531C380.255 96.2448 380.181 95.982 380.181 95.6648V90.2386Z" fill="#44A4F8"/>
<path d="M149.631 73.767L148.878 73.9801C148.83 73.8546 148.761 73.7327 148.668 73.6143C148.578 73.4936 148.455 73.3942 148.299 73.3161C148.143 73.2379 147.943 73.1989 147.699 73.1989C147.365 73.1989 147.087 73.2758 146.864 73.4297C146.644 73.5812 146.534 73.7741 146.534 74.0085C146.534 74.2169 146.61 74.3814 146.761 74.5021C146.913 74.6229 147.15 74.7235 147.472 74.804L148.281 75.0028C148.769 75.1212 149.132 75.3023 149.371 75.5462C149.611 75.7876 149.73 76.099 149.73 76.4801C149.73 76.7926 149.64 77.072 149.46 77.3182C149.283 77.5644 149.034 77.7585 148.714 77.9006C148.395 78.0426 148.023 78.1136 147.599 78.1136C147.043 78.1136 146.583 77.9929 146.218 77.7514C145.853 77.5099 145.623 77.1572 145.526 76.6932L146.321 76.4943C146.397 76.7879 146.54 77.008 146.751 77.1548C146.964 77.3016 147.242 77.375 147.585 77.375C147.976 77.375 148.286 77.2921 148.516 77.1264C148.748 76.9583 148.864 76.7571 148.864 76.5227C148.864 76.3333 148.797 76.1747 148.665 76.0469C148.532 75.9167 148.329 75.8196 148.054 75.7557L147.145 75.5426C146.645 75.4242 146.278 75.2408 146.044 74.9922C145.812 74.7412 145.696 74.4276 145.696 74.0511C145.696 73.7434 145.782 73.4711 145.955 73.2344C146.13 72.9976 146.368 72.8118 146.669 72.6768C146.972 72.5419 147.315 72.4744 147.699 72.4744C148.239 72.4744 148.662 72.5928 148.97 72.8295C149.28 73.0663 149.5 73.3788 149.631 73.767ZM153.364 72.5455V73.2557H150.537V72.5455H153.364ZM151.361 71.2386H152.199V76.4375C152.199 76.6742 152.233 76.8518 152.302 76.9702C152.373 77.0862 152.463 77.1643 152.572 77.2045C152.683 77.2424 152.8 77.2614 152.923 77.2614C153.016 77.2614 153.092 77.2566 153.151 77.2472C153.21 77.2353 153.257 77.2259 153.293 77.2188L153.463 77.9716C153.406 77.9929 153.327 78.0142 153.225 78.0355C153.124 78.0592 152.994 78.071 152.838 78.071C152.602 78.071 152.369 78.0201 152.142 77.9183C151.917 77.8165 151.73 77.6615 151.581 77.4531C151.434 77.2448 151.361 76.982 151.361 76.6648V71.2386ZM154.624 78V72.5455H155.434V73.3693H155.491C155.59 73.0994 155.77 72.8804 156.031 72.7124C156.291 72.5443 156.585 72.4602 156.911 72.4602C156.973 72.4602 157.05 72.4614 157.142 72.4638C157.235 72.4661 157.304 72.4697 157.352 72.4744V73.3267C157.323 73.3196 157.258 73.3089 157.156 73.2947C157.057 73.2782 156.952 73.2699 156.84 73.2699C156.575 73.2699 156.338 73.3255 156.13 73.4368C155.924 73.5457 155.761 73.6972 155.64 73.8913C155.522 74.0831 155.463 74.3021 155.463 74.5483V78H154.624ZM161.783 75.7699V72.5455H162.621V78H161.783V77.0767H161.726C161.598 77.3537 161.399 77.5893 161.129 77.7834C160.859 77.9751 160.518 78.071 160.107 78.071C159.766 78.071 159.463 77.9964 159.197 77.8473C158.932 77.6958 158.724 77.4685 158.572 77.1655C158.421 76.8601 158.345 76.4754 158.345 76.0114V72.5455H159.183V75.9545C159.183 76.3523 159.295 76.6695 159.517 76.9062C159.742 77.143 160.028 77.2614 160.376 77.2614C160.585 77.2614 160.797 77.2081 161.012 77.1016C161.23 76.995 161.412 76.8317 161.559 76.6115C161.708 76.3913 161.783 76.1108 161.783 75.7699ZM166.372 78.1136C165.86 78.1136 165.42 77.9929 165.051 77.7514C164.681 77.5099 164.397 77.1773 164.198 76.7536C163.999 76.3298 163.9 75.8456 163.9 75.3011C163.9 74.7472 164.002 74.2583 164.205 73.8345C164.411 73.4084 164.698 73.0758 165.065 72.8366C165.434 72.5952 165.865 72.4744 166.357 72.4744C166.741 72.4744 167.087 72.5455 167.394 72.6875C167.702 72.8295 167.954 73.0284 168.151 73.2841C168.347 73.5398 168.469 73.8381 168.517 74.179H167.678C167.615 73.9304 167.472 73.7102 167.252 73.5185C167.035 73.3243 166.741 73.2273 166.372 73.2273C166.045 73.2273 165.758 73.3125 165.512 73.483C165.268 73.651 165.078 73.889 164.941 74.1967C164.806 74.5021 164.738 74.8608 164.738 75.2727C164.738 75.6941 164.804 76.0611 164.937 76.3736C165.072 76.6861 165.261 76.9287 165.505 77.1016C165.751 77.2744 166.04 77.3608 166.372 77.3608C166.589 77.3608 166.787 77.3229 166.965 77.2472C167.142 77.1714 167.293 77.0625 167.416 76.9205C167.539 76.7784 167.626 76.608 167.678 76.4091H168.517C168.469 76.7311 168.352 77.0211 168.165 77.2791C167.98 77.5348 167.735 77.7384 167.43 77.8899C167.127 78.0391 166.774 78.1136 166.372 78.1136ZM172.114 72.5455V73.2557H169.287V72.5455H172.114ZM170.111 71.2386H170.949V76.4375C170.949 76.6742 170.983 76.8518 171.052 76.9702C171.123 77.0862 171.213 77.1643 171.322 77.2045C171.433 77.2424 171.55 77.2614 171.673 77.2614C171.766 77.2614 171.842 77.2566 171.901 77.2472C171.96 77.2353 172.007 77.2259 172.043 77.2188L172.213 77.9716C172.156 77.9929 172.077 78.0142 171.975 78.0355C171.874 78.0592 171.744 78.071 171.588 78.071C171.352 78.071 171.119 78.0201 170.892 77.9183C170.667 77.8165 170.48 77.6615 170.331 77.4531C170.184 77.2448 170.111 76.982 170.111 76.6648V71.2386Z" fill="black"/>
<path d="M439.631 73.767L438.878 73.9801C438.83 73.8546 438.761 73.7327 438.668 73.6143C438.578 73.4936 438.455 73.3942 438.299 73.3161C438.143 73.2379 437.943 73.1989 437.699 73.1989C437.365 73.1989 437.087 73.2758 436.864 73.4297C436.644 73.5812 436.534 73.7741 436.534 74.0085C436.534 74.2169 436.61 74.3814 436.761 74.5021C436.913 74.6229 437.15 74.7235 437.472 74.804L438.281 75.0028C438.769 75.1212 439.132 75.3023 439.371 75.5462C439.611 75.7876 439.73 76.099 439.73 76.4801C439.73 76.7926 439.64 77.072 439.46 77.3182C439.283 77.5644 439.034 77.7585 438.714 77.9006C438.395 78.0426 438.023 78.1136 437.599 78.1136C437.043 78.1136 436.583 77.9929 436.218 77.7514C435.853 77.5099 435.623 77.1572 435.526 76.6932L436.321 76.4943C436.397 76.7879 436.54 77.008 436.751 77.1548C436.964 77.3016 437.242 77.375 437.585 77.375C437.976 77.375 438.286 77.2921 438.516 77.1264C438.748 76.9583 438.864 76.7571 438.864 76.5227C438.864 76.3333 438.797 76.1747 438.665 76.0469C438.532 75.9167 438.329 75.8196 438.054 75.7557L437.145 75.5426C436.645 75.4242 436.278 75.2408 436.044 74.9922C435.812 74.7412 435.696 74.4276 435.696 74.0511C435.696 73.7434 435.782 73.4711 435.955 73.2344C436.13 72.9976 436.368 72.8118 436.669 72.6768C436.972 72.5419 437.315 72.4744 437.699 72.4744C438.239 72.4744 438.662 72.5928 438.97 72.8295C439.28 73.0663 439.5 73.3788 439.631 73.767ZM443.364 72.5455V73.2557H440.537V72.5455H443.364ZM441.361 71.2386H442.199V76.4375C442.199 76.6742 442.233 76.8518 442.302 76.9702C442.373 77.0862 442.463 77.1643 442.572 77.2045C442.683 77.2424 442.8 77.2614 442.923 77.2614C443.016 77.2614 443.092 77.2566 443.151 77.2472C443.21 77.2353 443.257 77.2259 443.293 77.2188L443.463 77.9716C443.406 77.9929 443.327 78.0142 443.225 78.0355C443.124 78.0592 442.994 78.071 442.838 78.071C442.602 78.071 442.369 78.0201 442.142 77.9183C441.917 77.8165 441.73 77.6615 441.581 77.4531C441.434 77.2448 441.361 76.982 441.361 76.6648V71.2386ZM444.624 78V72.5455H445.434V73.3693H445.491C445.59 73.0994 445.77 72.8804 446.031 72.7124C446.291 72.5443 446.585 72.4602 446.911 72.4602C446.973 72.4602 447.05 72.4614 447.142 72.4638C447.235 72.4661 447.304 72.4697 447.352 72.4744V73.3267C447.323 73.3196 447.258 73.3089 447.156 73.2947C447.057 73.2782 446.952 73.2699 446.84 73.2699C446.575 73.2699 446.338 73.3255 446.13 73.4368C445.924 73.5457 445.761 73.6972 445.64 73.8913C445.522 74.0831 445.463 74.3021 445.463 74.5483V78H444.624ZM451.783 75.7699V72.5455H452.621V78H451.783V77.0767H451.726C451.598 77.3537 451.399 77.5893 451.129 77.7834C450.859 77.9751 450.518 78.071 450.107 78.071C449.766 78.071 449.463 77.9964 449.197 77.8473C448.932 77.6958 448.724 77.4685 448.572 77.1655C448.421 76.8601 448.345 76.4754 448.345 76.0114V72.5455H449.183V75.9545C449.183 76.3523 449.295 76.6695 449.517 76.9062C449.742 77.143 450.028 77.2614 450.376 77.2614C450.585 77.2614 450.797 77.2081 451.012 77.1016C451.23 76.995 451.412 76.8317 451.559 76.6115C451.708 76.3913 451.783 76.1108 451.783 75.7699ZM456.372 78.1136C455.86 78.1136 455.42 77.9929 455.051 77.7514C454.681 77.5099 454.397 77.1773 454.198 76.7536C453.999 76.3298 453.9 75.8456 453.9 75.3011C453.9 74.7472 454.002 74.2583 454.205 73.8345C454.411 73.4084 454.698 73.0758 455.065 72.8366C455.434 72.5952 455.865 72.4744 456.357 72.4744C456.741 72.4744 457.087 72.5455 457.394 72.6875C457.702 72.8295 457.954 73.0284 458.151 73.2841C458.347 73.5398 458.469 73.8381 458.517 74.179H457.678C457.615 73.9304 457.472 73.7102 457.252 73.5185C457.035 73.3243 456.741 73.2273 456.372 73.2273C456.045 73.2273 455.758 73.3125 455.512 73.483C455.268 73.651 455.078 73.889 454.941 74.1967C454.806 74.5021 454.738 74.8608 454.738 75.2727C454.738 75.6941 454.804 76.0611 454.937 76.3736C455.072 76.6861 455.261 76.9287 455.505 77.1016C455.751 77.2744 456.04 77.3608 456.372 77.3608C456.589 77.3608 456.787 77.3229 456.965 77.2472C457.142 77.1714 457.293 77.0625 457.416 76.9205C457.539 76.7784 457.626 76.608 457.678 76.4091H458.517C458.469 76.7311 458.352 77.0211 458.165 77.2791C457.98 77.5348 457.735 77.7384 457.43 77.8899C457.127 78.0391 456.774 78.1136 456.372 78.1136ZM462.114 72.5455V73.2557H459.287V72.5455H462.114ZM460.111 71.2386H460.949V76.4375C460.949 76.6742 460.983 76.8518 461.052 76.9702C461.123 77.0862 461.213 77.1643 461.322 77.2045C461.433 77.2424 461.55 77.2614 461.673 77.2614C461.766 77.2614 461.842 77.2566 461.901 77.2472C461.96 77.2353 462.007 77.2259 462.043 77.2188L462.213 77.9716C462.156 77.9929 462.077 78.0142 461.975 78.0355C461.874 78.0592 461.744 78.071 461.588 78.071C461.352 78.071 461.119 78.0201 460.892 77.9183C460.667 77.8165 460.48 77.6615 460.331 77.4531C460.184 77.2448 460.111 76.982 460.111 76.6648V71.2386Z" fill="black"/>
</svg>
